<?xml version="1.0" standalone="no"?>
<!DOCTYPE svg PUBLIC "-//W3C//DTD SVG 20010904//EN"
 "http://www.w3.org/TR/2001/REC-SVG-20010904/DTD/svg10.dtd">
<svg version="1.0" xmlns="http://www.w3.org/2000/svg"
 width="151.000000pt" height="151.000000pt" viewBox="0 0 151.000000 151.000000"
 preserveAspectRatio="xMidYMid meet">
<metadata>
Created by potrace 1.11, written by Peter Selinger 2001-2013
</metadata>
<g transform="translate(0.000000,151.000000) scale(0.100000,-0.100000)"
fill="#000000" stroke="none">
<path d="M669 1498 c-100 -20 -121 -27 -137 -41 -9 -8 -29 -19 -45 -22 -15 -4
-30 -11 -33 -16 -3 -5 -16 -9 -29 -9 -30 0 -44 -25 -47 -85 0 -25 -5 -48 -9
-51 -10 -6 0 -102 13 -127 5 -10 11 -89 13 -175 1 -86 6 -170 9 -187 4 -16 13
-60 21 -97 8 -36 17 -83 21 -105 3 -21 8 -49 11 -63 3 -14 7 -126 8 -249 1
-191 4 -224 17 -232 28 -15 120 -24 258 -24 180 0 289 14 291 39 1 6 2 105 3
221 2 203 3 216 40 380 31 142 38 195 43 325 3 85 9 162 14 171 10 19 12 116
3 186 -6 48 -9 53 -40 63 -18 6 -44 20 -58 31 -14 11 -36 21 -48 23 -22 2 -39
8 -83 26 -48 20 -178 30 -236 18z"/>
</g>
</svg>
